<svg width="21" height="20" viewBox="0 0 21 20" fill="none" xmlns="http://www.w3.org/2000/svg">
<path d="M10.787 0.313477C8.46754 0.313477 6.57068 2.21651 6.57068 4.53593C6.57066 6.8554 8.46754 8.75219 10.787 8.75219C13.1064 8.75219 15.0094 6.8554 15.0094 4.53593C15.0094 2.21651 13.1064 0.313477 10.787 0.313477ZM10.787 2.19211C12.0931 2.19211 13.1356 3.22982 13.1356 4.53593C13.1356 5.84207 12.0931 6.87968 10.787 6.87968C9.48086 6.87968 8.44324 5.84207 8.44324 4.53593C8.44324 3.22982 9.48086 2.19211 10.787 2.19211ZM4.33069 11.6757V11.6745C3.27273 12.3802 4.36448 13.9577 5.39759 13.2163C7.39979 11.7993 13.0413 11.1166 16.1935 13.2068C16.9797 13.7608 17.3519 14.3487 17.3519 15.1551V16.2501C17.3519 17.1319 16.6713 17.8125 15.7894 17.8125H5.78943C4.9076 17.8125 4.22693 17.1319 4.22693 16.2501V15.116C4.24583 13.8482 2.334 13.8482 2.35193 15.116V16.2501C2.35193 18.1382 3.90127 19.6875 5.78943 19.6875H15.7894C17.6776 19.6875 19.2269 18.1382 19.2269 16.2501V15.1551C19.2269 13.69 18.4023 12.4697 17.2726 11.6737C14.1881 9.55797 7.96567 9.24879 4.33069 11.6757Z" fill="#02AC8F"/>
</svg>
