<svg width="21" height="20" viewBox="0 0 21 20" fill="none" xmlns="http://www.w3.org/2000/svg">
<g clip-path="url(#clip0_1_6302)">
<path d="M20.5551 3.10921C20.3676 2.89437 20.0981 2.76937 19.8129 2.76937H5.96139C5.42232 2.76937 4.98482 3.20687 4.98482 3.74593C4.98482 4.28499 5.42232 4.72249 5.96139 4.72249H18.6723L17.8208 10.2342C17.727 10.8514 17.2036 11.3006 16.5786 11.3006H4.3481L2.73092 0.827963C2.64889 0.292807 2.14889 -0.0704747 1.61764 0.0115565C1.08248 0.0935878 0.719198 0.593588 0.801229 1.12484L3.02779 15.5311C3.11373 16.0858 3.39498 16.5936 3.82076 16.9608C4.24654 17.328 4.79342 17.5272 5.35201 17.5272H6.88326V19.0233C6.88326 19.5623 7.32076 19.9998 7.85982 19.9998C8.39889 19.9998 8.83639 19.5623 8.83639 19.0233V17.5272H14.5473V19.0233C14.5473 19.5623 14.9848 19.9998 15.5239 19.9998C16.0629 19.9998 16.5004 19.5623 16.5004 19.0233V17.5272H18.3833C18.9223 17.5272 19.3598 17.0897 19.3598 16.5506C19.3598 16.0116 18.9223 15.5741 18.3833 15.5741H5.35201C5.15279 15.5741 4.98482 15.4295 4.95357 15.2342L4.64889 13.2537H16.5786C17.3442 13.2537 18.0864 12.9803 18.6684 12.4803C19.2504 11.9803 19.6333 11.2889 19.7504 10.535L20.7778 3.89437C20.8208 3.60921 20.7387 3.32406 20.5551 3.10921Z" fill="#02AC8F"/>
</g>
<defs>
<clipPath id="clip0_1_6302">
<rect width="20" height="20" fill="white" transform="translate(0.789551)"/>
</clipPath>
</defs>
</svg>
