<svg width="20" height="20" viewBox="0 0 20 20" fill="none" xmlns="http://www.w3.org/2000/svg">
<path d="M19.4666 15.9255L13.6 9.99215L19.5333 4.05883C19.8667 3.72547 20 3.32547 20 2.92547C20 2.52547 19.8667 2.12547 19.5333 1.85879L18.1333 0.458789C17.5333 -0.141211 16.5333 -0.141211 15.9333 0.458789L10 6.39215L4.06664 0.458789C3.46664 -0.141211 2.46664 -0.141211 1.86664 0.458789L0.466641 1.85879C0.2 2.12547 0 2.52547 0 2.92547C0 3.32547 0.2 3.72547 0.46668 4.05879L6.4 9.99215L0.466641 15.9255C-0.133359 16.5255 -0.133359 17.5255 0.466641 18.1255L1.86664 19.5255C2.46664 20.1255 3.46664 20.1255 4.06664 19.5255L9.99996 13.5921L15.9332 19.5255C16.1999 19.7921 16.5999 19.9921 16.9999 19.9921C17.3999 19.9921 17.7999 19.8588 18.0666 19.5255L19.4666 18.1255C19.7333 17.8588 19.9333 17.4588 19.9333 16.9921C19.9332 16.5921 19.7999 16.1921 19.4666 15.9255ZM18.6 17.1921L17.2 18.5921C17.0667 18.7255 17 18.7255 16.8666 18.5921L10.4666 12.1921C10.4 12.0588 10.2 11.9921 10 11.9921C9.80004 11.9921 9.66664 12.0588 9.53336 12.1921L3.13336 18.5921C3.00004 18.7255 2.93336 18.7255 2.8 18.5921L1.4 17.1921C1.33336 17.1255 1.33336 16.9921 1.4 16.8588L7.8 10.4588C7.93332 10.3255 8 10.1921 8 9.99215C8 9.79215 7.93332 9.65879 7.8 9.52547L1.4 3.12547C1.33336 3.05883 1.33336 2.99215 1.33336 2.92547C1.33336 2.85879 1.33336 2.79215 1.4 2.79215L2.8 1.39215C2.93332 1.25883 3 1.25883 3.13336 1.39215L9.53336 7.79215C9.80004 8.05883 10.2 8.05883 10.4667 7.79215L16.8667 1.39215C17 1.25883 17.0667 1.25883 17.2 1.39215L18.6 2.79215C18.6667 2.85879 18.6667 2.92547 18.6667 2.92547C18.6667 2.99211 18.6667 3.05879 18.6 3.05879L12.2 9.45879C11.9333 9.72547 11.9333 10.1255 12.2 10.3921L18.6 16.7921C18.6667 16.8588 18.6667 16.9254 18.6667 16.9254C18.6667 17.0588 18.6667 17.1255 18.6 17.1921Z" fill="#02AC8F"/>
</svg>
