<svg width="17" height="16" viewBox="0 0 17 16" fill="none" xmlns="http://www.w3.org/2000/svg">
<g clip-path="url(#clip0_1_6320)">
<path d="M8.94702 16C8.89404 16 8.84106 16 8.78772 15.9997C7.53357 16.0028 6.37476 15.9709 5.2478 15.9023C4.2146 15.8395 3.27148 15.4824 2.52026 14.8699C1.79541 14.2788 1.30042 13.4796 1.04907 12.4947C0.830322 11.6373 0.818726 10.7956 0.807617 9.98154C0.799561 9.39743 0.79126 8.70529 0.789551 8.00143C0.79126 7.29464 0.799561 6.6025 0.807617 6.0184C0.818726 5.20443 0.830322 4.36275 1.04907 3.50521C1.30042 2.52034 1.79541 1.72115 2.52026 1.13008C3.27148 0.517534 4.2146 0.160478 5.24792 0.0976115C6.37488 0.02913 7.53394 -0.00285251 8.79077 0.000199254C10.0453 -0.0024863 11.2037 0.02913 12.3307 0.0976115C13.3639 0.160478 14.307 0.517534 15.0582 1.13008C15.7832 1.72115 16.2781 2.52034 16.5294 3.50521C16.7482 4.36263 16.7598 5.20443 16.7709 6.0184C16.7789 6.6025 16.7874 7.29464 16.7889 7.9985C16.7874 8.70529 16.7789 9.39743 16.7709 9.98154C16.7662 10.3268 16.4811 10.6026 16.1375 10.598C15.7922 10.5932 15.5164 10.3095 15.521 9.96445C15.5289 9.38376 15.5374 8.69614 15.5389 7.9985C15.5374 7.3038 15.5289 6.61618 15.521 6.03549C15.5109 5.2944 15.5004 4.52804 15.3182 3.81429C15.1345 3.09432 14.7812 2.51717 14.2683 2.09884C13.7135 1.64632 13.036 1.39278 12.2548 1.34529C11.1543 1.2784 10.0215 1.24752 8.79077 1.25008C7.55713 1.24715 6.42419 1.2784 5.32373 1.34529C4.54248 1.39278 3.86511 1.64632 3.31018 2.09871C2.79724 2.51705 2.44397 3.0942 2.26025 3.81429C2.07812 4.52804 2.06763 5.2944 2.0575 6.03549C2.04956 6.61618 2.04126 7.3038 2.03955 8.00143C2.04126 8.69614 2.04956 9.38376 2.0575 9.96445C2.06763 10.7055 2.07812 11.4719 2.26025 12.1856C2.44397 12.9056 2.79724 13.4828 3.31018 13.9011C3.86511 14.3536 4.54248 14.6072 5.32373 14.6546C6.42419 14.7215 7.55737 14.7528 8.78784 14.7497C10.0216 14.7527 11.1543 14.7215 12.2548 14.6546C13.036 14.6072 13.7134 14.3536 14.2683 13.9011C14.6378 13.5997 14.9265 13.213 15.1263 12.7516C15.2635 12.4349 15.6315 12.2893 15.9482 12.4265C16.265 12.5637 16.4105 12.9316 16.2734 13.2484C15.9933 13.8952 15.5845 14.4408 15.0582 14.8699C14.307 15.4825 13.3639 15.8395 12.3307 15.9023C11.2515 15.968 10.1428 16 8.94702 16ZM12.6642 7.99997C12.6642 5.84603 10.9119 4.09371 8.75793 4.09371C6.60413 4.09371 4.85168 5.84603 4.85168 7.99997C4.85168 10.1539 6.60413 11.9062 8.75793 11.9062C10.9119 11.9062 12.6642 10.1539 12.6642 7.99997ZM11.4142 7.99997C11.4142 9.46457 10.2227 10.6562 8.75793 10.6562C7.29333 10.6562 6.10168 9.46457 6.10168 7.99997C6.10168 6.53537 7.29333 5.34371 8.75793 5.34371C10.2227 5.34371 11.4142 6.53537 11.4142 7.99997ZM13.1017 2.84371C12.584 2.84371 12.1642 3.26339 12.1642 3.78121C12.1642 4.29903 12.584 4.71871 13.1017 4.71871C13.6195 4.71871 14.0392 4.29903 14.0392 3.78121C14.0392 3.26339 13.6195 2.84371 13.1017 2.84371Z" fill="white"/>
</g>
<defs>
<clipPath id="clip0_1_6320">
<rect width="16" height="16" fill="white" transform="translate(0.789551)"/>
</clipPath>
</defs>
</svg>
