<svg width="18" height="20" viewBox="0 0 18 20" fill="none" xmlns="http://www.w3.org/2000/svg">
<path d="M7.25262 0.314453C5.70829 0.314453 4.43937 1.58338 4.43937 3.12771V4.20974H1.41215C0.193852 4.30035 0.283782 6.1155 1.50507 6.08524H8.46547C8.77717 9.10364 11.1089 11.5417 14.0883 12.0052L13.9489 16.2477C13.92 17.1318 13.1816 17.842 12.2984 17.842H5.7329C4.84967 17.842 4.11133 17.1318 4.08236 16.2477L3.81949 8.16982C3.83298 6.86373 1.84718 6.92722 1.94399 8.22973L2.20685 16.3076C2.2688 18.1979 3.84178 19.7175 5.7329 19.7175H12.2984C14.1895 19.7175 15.7625 18.1979 15.8244 16.3076L16.1607 6.08524H16.5275C17.8458 6.15504 17.8458 4.13985 16.5275 4.20974C15.5325 4.19554 14.5901 4.20974 13.5932 4.20974V3.12771C13.5932 1.58338 12.3181 0.314453 10.7738 0.314453H7.25262ZM7.25262 2.18996H10.7738C11.3102 2.18996 11.7164 2.59126 11.7164 3.12771V4.20974H6.31487V3.12771C6.31487 2.59126 6.71619 2.18996 7.25262 2.18996ZM10.3605 6.08524H14.2815L14.1495 10.1065C12.1709 9.70418 10.6475 8.10203 10.3605 6.08524ZM6.68899 11.8805C6.17114 11.8876 5.75755 12.315 5.76469 12.8329V15.3368C5.70363 16.6472 7.70248 16.6472 7.64142 15.3368V12.8329C7.6487 12.3042 7.21771 11.8732 6.68899 11.8805ZM10.8386 11.8805C10.3207 11.8876 9.90714 12.315 9.91428 12.8329V15.3368C9.85321 16.6472 11.8521 16.6472 11.791 15.3368V12.8329C11.7983 12.3042 11.3673 11.8732 10.8386 11.8805Z" fill="#FFE121"/>
</svg>
