<?xml version="1.0" standalone="no"?>
<!DOCTYPE svg PUBLIC "-//W3C//DTD SVG 20010904//EN"
 "http://www.w3.org/TR/2001/REC-SVG-20010904/DTD/svg10.dtd">
<svg version="1.0" xmlns="http://www.w3.org/2000/svg"
 width="700.000000pt" height="700.000000pt" viewBox="0 0 700.000000 700.000000"
 preserveAspectRatio="xMidYMid meet">
<metadata>
Created by potrace 1.14, written by Peter Selinger 2001-2017
</metadata>
<g transform="translate(0.000000,700.000000) scale(0.100000,-0.100000)"
fill="#000000" stroke="none">
<path d="M1597 6124 c-1 -1 -43 -4 -92 -7 -50 -3 -97 -8 -105 -11 -8 -3 -33
-8 -55 -11 -22 -3 -69 -13 -105 -21 -36 -9 -72 -17 -80 -19 -59 -13 -247 -87
-325 -128 -403 -210 -671 -536 -781 -950 -13 -48 -26 -104 -29 -125 -3 -21 -8
-49 -11 -62 -13 -55 -11 -386 3 -475 79 -504 371 -905 828 -1134 176 -89 382
-153 560 -175 22 -3 65 -8 95 -12 67 -8 298 -8 366 0 27 3 67 8 89 11 198 23
419 94 615 198 52 27 97 53 100 56 3 3 31 23 63 44 82 54 100 69 213 183 191
192 321 431 385 704 6 25 12 54 14 65 1 11 7 43 11 70 5 28 9 133 9 235 -1
172 -6 225 -39 386 -13 64 -82 248 -122 324 -89 173 -237 355 -387 475 -123
99 -241 167 -447 258 -34 15 -189 62 -234 71 -183 37 -278 48 -439 51 -54 0
-99 0 -100 -1z m228 -849 c204 -34 409 -219 485 -439 51 -150 57 -372 14 -536
-54 -204 -234 -400 -421 -458 -91 -29 -122 -34 -228 -33 -171 0 -315 58 -436
173 -152 145 -222 323 -220 563 0 150 20 251 67 353 77 164 237 311 394 361
84 27 235 33 345 16z"/>
<path d="M5217 6124 c-1 -1 -38 -5 -82 -8 -44 -3 -107 -11 -140 -17 -33 -5
-69 -12 -80 -14 -46 -7 -156 -39 -235 -66 -245 -86 -471 -228 -635 -400 -76
-79 -165 -191 -165 -207 0 -6 -3 -12 -7 -14 -18 -7 -112 -189 -147 -282 -31
-81 -72 -250 -83 -336 -15 -129 -9 -414 12 -525 24 -128 88 -316 142 -419 101
-190 266 -383 433 -505 30 -22 60 -44 65 -48 28 -23 166 -99 240 -133 147 -68
352 -127 500 -145 28 -3 66 -8 85 -10 50 -7 313 -7 385 0 240 23 509 103 685
204 30 17 62 34 70 38 22 10 129 82 180 121 86 67 236 229 298 322 98 146 193
360 217 485 3 17 13 68 22 115 18 94 24 387 9 500 -10 79 -57 265 -86 340
-117 304 -337 568 -620 743 -158 97 -353 176 -535 216 -87 19 -113 23 -240 37
-56 6 -283 13 -288 8z m273 -859 c205 -53 385 -228 454 -441 48 -147 52 -354
10 -519 -58 -226 -276 -446 -476 -480 -18 -3 -41 -8 -51 -11 -25 -8 -173 -7
-225 1 -247 37 -463 239 -527 493 -24 94 -27 122 -26 242 0 224 56 380 188
529 59 66 162 138 236 166 116 43 295 52 417 20z"/>
<path d="M4881 2297 c-20 -59 -112 -188 -191 -266 -193 -192 -498 -348 -800
-410 -52 -11 -113 -22 -135 -25 -22 -3 -63 -8 -90 -11 -114 -14 -330 -7 -465
15 -30 5 -73 12 -95 15 -151 22 -436 130 -595 226 -100 60 -234 175 -303 260
-39 47 -92 137 -108 182 -10 27 -17 36 -29 31 -19 -7 -830 -254 -836 -254 -16
0 98 -256 146 -327 17 -24 30 -46 30 -49 0 -4 37 -56 77 -109 132 -171 334
-350 546 -481 117 -73 343 -182 472 -228 99 -35 326 -100 381 -109 16 -3 70
-12 119 -21 573 -99 1167 -19 1681 225 134 64 315 170 382 224 9 7 52 41 94
74 191 150 367 358 475 561 37 70 93 201 93 218 0 4 -19 13 -42 20 -24 7 -65
21 -93 32 -27 10 -95 34 -150 53 -55 19 -198 69 -317 111 -119 42 -221 76
-227 76 -5 0 -14 -15 -20 -33z"/>
</g>
</svg>
