<svg width="21" height="20" viewBox="0 0 21 20" fill="none" xmlns="http://www.w3.org/2000/svg">
<g clip-path="url(#clip0_1_6339)">
<path d="M9.59713 0C4.74076 0 0.789551 3.95121 0.789551 8.80758C0.789551 13.6642 4.74076 17.6152 9.59713 17.6152C14.4538 17.6152 18.4047 13.6642 18.4047 8.80758C18.4047 3.95121 14.4538 0 9.59713 0ZM9.59713 15.9892C5.63725 15.9892 2.41557 12.7675 2.41557 8.80762C2.41557 4.84773 5.63725 1.62602 9.59713 1.62602C13.557 1.62602 16.7787 4.8477 16.7787 8.80758C16.7787 12.7675 13.557 15.9892 9.59713 15.9892Z" fill="#02AC8F"/>
<path d="M20.5513 18.6124L15.89 13.9511C15.5724 13.6335 15.058 13.6335 14.7404 13.9511C14.4228 14.2684 14.4228 14.7834 14.7404 15.1007L19.4017 19.762C19.5605 19.9208 19.7684 20.0002 19.9765 20.0002C20.1843 20.0002 20.3925 19.9208 20.5513 19.762C20.8689 19.4446 20.8689 18.9297 20.5513 18.6124Z" fill="#02AC8F"/>
</g>
<defs>
<clipPath id="clip0_1_6339">
<rect width="20" height="20" fill="white" transform="translate(0.789551)"/>
</clipPath>
</defs>
</svg>
