<svg width="21" height="20" viewBox="0 0 21 20" fill="none" xmlns="http://www.w3.org/2000/svg">
<path d="M17.1038 10.3443C18.0116 9.24429 20.064 6.59429 19.6036 5.53179C19.5316 5.36939 19.4094 5.23161 19.2532 5.13673C19.0969 5.04185 18.914 4.99435 18.7286 5.00054H16.2223C16.1116 5.00138 16.003 5.02874 15.9064 5.08009C15.8098 5.13144 15.7284 5.20511 15.6697 5.29429C14.9038 6.4755 14.0531 7.60525 13.1239 8.67554V6.21929C13.1275 6.0583 13.0968 5.89829 13.0336 5.74889C12.9704 5.59948 12.8761 5.46377 12.7562 5.34991C12.6364 5.23605 12.4935 5.14641 12.3363 5.08636C12.179 5.02632 12.0106 4.99713 11.8412 5.00054H8.70991C8.62334 5.00006 8.53751 5.01583 8.45737 5.04693C8.37722 5.07803 8.30432 5.12386 8.24285 5.18179C8.09826 5.2981 7.99038 5.45018 7.93116 5.62116C7.87195 5.79215 7.86371 5.97537 7.90736 6.15054C7.98838 6.37775 8.13139 6.58047 8.32179 6.73804C8.43325 6.81559 8.52362 6.91729 8.5854 7.03468C8.64718 7.15208 8.67859 7.28179 8.67702 7.41304V9.65054C8.23627 9.28179 7.39425 8.25679 6.19043 5.39429C6.14168 5.278 6.0573 5.17829 5.94822 5.10809C5.83915 5.03788 5.71039 5.00041 5.57864 5.00054H2.44738C2.27291 5.00054 2.10559 5.06638 1.98222 5.18359C1.85886 5.3008 1.78955 5.45978 1.78955 5.62554C1.78955 5.7913 1.85886 5.95027 1.98222 6.06748C2.10559 6.18469 2.27291 6.25054 2.44738 6.25054H5.1379C6.45356 9.28179 7.63765 10.863 8.75596 11.0818C8.93906 11.1236 9.13017 11.1221 9.31253 11.0774C9.49489 11.0328 9.66292 10.9463 9.80191 10.8255C9.92344 10.7091 9.99195 10.552 9.99268 10.388V7.41304C9.99946 6.99772 9.86826 6.59093 9.61771 6.25054H11.8083V9.78804C11.8078 9.87029 11.8244 9.95183 11.8571 10.028C11.8899 10.1041 11.9381 10.1734 11.9991 10.2318C12.0911 10.3192 12.203 10.3854 12.3261 10.4255C12.4493 10.4655 12.5804 10.4784 12.7095 10.463C13.4726 10.3755 14.7817 8.96304 16.5907 6.25054H18.2813C17.6066 7.57662 16.7602 8.81747 15.7618 9.94429C15.6393 10.0614 15.5705 10.2198 15.5705 10.3849C15.5705 10.55 15.6393 10.7084 15.7618 10.8255C17.7353 12.6693 18.255 13.563 18.3932 13.9505H16.2684C15.9488 13.702 15.6656 13.414 15.4263 13.0943C15.0397 12.6239 14.6245 12.1752 14.183 11.7505C13.9133 11.4943 13.2029 10.813 12.4661 11.1255C12.2557 11.2232 12.0808 11.3782 11.9636 11.5708C11.8464 11.7634 11.7924 11.9848 11.8083 12.2068V13.838C11.4092 13.9231 10.9998 13.9567 10.5913 13.938C7.46661 13.938 5.05238 9.82554 3.88802 7.36929C3.80996 7.22854 3.67834 7.12138 3.52 7.06964C3.36165 7.0179 3.1885 7.02548 3.03583 7.09083C2.88317 7.15618 2.76248 7.27439 2.69836 7.42135C2.63425 7.56832 2.63153 7.73299 2.69078 7.88179C4.00643 10.613 6.72985 15.188 10.5847 15.188C11.3412 15.188 13.1174 15.188 13.1174 13.9693V12.4943L13.2489 12.613C13.6564 13.0094 14.0407 13.4267 14.4001 13.863C15.0251 14.5943 15.5184 15.1755 16.2157 15.1755H18.7221C18.9312 15.1743 19.1352 15.1143 19.3084 15.0031C19.4817 14.8919 19.6164 14.7344 19.6957 14.5505C19.9588 13.9818 19.8338 13.013 17.1038 10.3443Z" fill="white"/>
</svg>
