<svg width="17" height="16" viewBox="0 0 17 16" fill="none" xmlns="http://www.w3.org/2000/svg">
<g clip-path="url(#clip0_1_6324)">
<path d="M8.78943 15.9359H8.78625C7.53796 15.9354 6.30029 15.6407 5.19116 15.0817L1.77222 15.8594C1.5636 15.9067 1.34509 15.8441 1.19324 15.6934C1.04138 15.5426 0.977295 15.3246 1.02319 15.1156L1.76404 11.7482C1.12756 10.5728 0.791504 9.2854 0.789673 8.00891C0.789551 8.00452 0.789551 8.00012 0.789551 7.99585C0.790405 5.88049 1.62695 3.88831 3.1449 2.38635C4.65942 0.887817 6.66394 0.0625 8.78931 0.0625C10.9194 0.0633545 12.9208 0.889404 14.4253 2.38831C15.9507 3.90808 16.7903 5.90186 16.7896 8.0022C16.7889 9.58948 16.313 11.1235 15.4132 12.4384C15.2183 12.7233 14.8293 12.7961 14.5444 12.6012C14.2596 12.4062 14.1866 12.0173 14.3816 11.7324C15.1385 10.6262 15.5389 9.33618 15.5396 8.00171C15.5402 6.23621 14.8312 4.55713 13.5431 3.2738C12.2744 2.00977 10.5861 1.31323 8.78906 1.3125C5.07288 1.3125 2.04736 4.30444 2.03955 7.98462C2.03955 7.98865 2.03967 7.99255 2.03967 7.99646C2.03918 9.13562 2.35962 10.2906 2.96619 11.3367C3.04468 11.472 3.06958 11.6318 3.03589 11.7845L2.45569 14.4219L5.13818 13.8116C5.28625 13.7781 5.44153 13.7994 5.57507 13.8718C6.55518 14.4039 7.66565 14.6854 8.7865 14.6859H8.78931C10.0082 14.6859 11.2052 14.3563 12.2509 13.7329C12.5472 13.556 12.9309 13.6531 13.1077 13.9496C13.2844 14.2461 13.1875 14.6296 12.891 14.8065C11.6519 15.5453 10.2335 15.9359 8.78931 15.9359H8.78943ZM7.02429 4.81934C6.88721 4.51562 6.74292 4.50525 6.61255 4.5H6.26184C6.13977 4.5 5.94153 4.54565 5.77393 4.72815C5.6062 4.91064 5.13342 5.35181 5.13342 6.24915C5.13342 7.14648 5.78918 8.01367 5.88062 8.1355C5.97217 8.25708 7.14661 10.1573 9.00647 10.8884C10.5522 11.496 10.8668 11.3751 11.2023 11.3446C11.5378 11.3143 12.285 10.9036 12.4374 10.4777C12.59 10.0519 12.59 9.68689 12.5442 9.6106C12.4985 9.53467 12.3765 9.48901 12.1935 9.39783C12.0104 9.30664 11.1135 8.85779 10.9458 8.797C10.7781 8.73621 10.6561 8.70581 10.5341 8.88843C10.412 9.0708 10.0526 9.49255 9.9458 9.61414C9.83911 9.73608 9.7323 9.75122 9.54932 9.66003C9.36633 9.56848 8.78296 9.37256 8.08386 8.75134C7.53979 8.26782 7.16235 7.65137 7.05554 7.46875C6.94873 7.28638 7.04407 7.1875 7.13586 7.09656C7.21802 7.01489 7.32922 6.9032 7.42078 6.79675C7.51208 6.69031 7.53821 6.61426 7.59912 6.49255C7.66016 6.37085 7.62964 6.2644 7.58398 6.1731C7.53821 6.08191 7.18689 5.17993 7.02417 4.81934" fill="white"/>
</g>
<defs>
<clipPath id="clip0_1_6324">
<rect width="16" height="16" fill="white" transform="translate(0.789551)"/>
</clipPath>
</defs>
</svg>
