<svg width="130" height="106" viewBox="0 0 130 106" fill="none" xmlns="http://www.w3.org/2000/svg">
<g clip-path="url(#clip0_1_6084)">
<path d="M128.693 75.6313L123.681 69.1788L115.57 53.0391C115.067 52.0335 114.045 51.4134 112.922 51.4134H101.642V48.9497C101.642 47.324 100.318 46 98.6927 46H53.6089C51.9832 46 50.6592 47.324 50.6592 48.9497C50.6592 50.5754 51.9832 51.8994 53.6089 51.8994H95.7262V70.5698C95.7262 72.1955 97.0502 73.5196 98.6759 73.5196H119.592L123.397 78.4302V92.0391H118.754C117.464 87.1955 113.089 83.8436 108.061 83.8436C103.033 83.8436 98.6592 87.2123 97.3687 92.0391H81.7988C80.5083 87.1955 76.134 83.8436 71.1061 83.8436C66.0782 83.8436 61.7039 87.2123 60.4134 92.0391H53.6089C51.9832 92.0391 50.6592 93.3631 50.6592 94.9888C50.6592 96.6145 51.9832 97.9385 53.6089 97.9385H60.4636C61.8212 102.665 66.162 105.966 71.1061 105.966C76.0502 105.966 80.391 102.682 81.7486 97.9385H97.4189C98.7765 102.665 103.117 105.966 108.061 105.966C113.006 105.966 117.346 102.682 118.704 97.9385H126.363C127.989 97.9385 129.313 96.6145 129.313 94.9888V77.4413C129.313 76.7877 129.095 76.1341 128.693 75.6313ZM116.29 67.6369H101.642V57.3128H111.112L116.29 67.6369ZM113.223 94.9218C113.223 97.771 110.911 100.084 108.061 100.084C105.212 100.084 102.899 97.771 102.899 94.9218C102.899 92.0726 105.212 89.7598 108.061 89.7598C110.911 89.7765 113.223 92.0894 113.223 94.9218ZM76.2681 94.9218C76.2681 97.771 73.9553 100.084 71.1061 100.084C68.2569 100.084 65.9441 97.771 65.9441 94.9218C65.9441 92.0726 68.2569 89.7598 71.1061 89.7598C73.9553 89.7765 76.2681 92.0894 76.2681 94.9218Z" fill="#02AC8F"/>
<path d="M65.7598 81.3132C65.7598 80.5255 65.4581 79.788 64.8883 79.2182C64.3352 78.6651 63.581 78.3467 62.7933 78.3467H50.3743C48.7486 78.3467 47.4246 79.6707 47.4246 81.2964C47.4246 82.9221 48.7486 84.2461 50.3743 84.2461H62.8101C64.4358 84.2629 65.7598 82.9389 65.7598 81.3132Z" fill="#02AC8F"/>
<path d="M71.9777 70.6704C71.9777 69.0447 70.6536 67.7207 69.0279 67.7207H45.9497C44.324 67.7207 43 69.0447 43 70.6704C43 72.2961 44.324 73.6202 45.9497 73.6202H69.0279C70.6536 73.6369 71.9777 72.3129 71.9777 70.6704Z" fill="#02AC8F"/>
<path d="M50.3743 62.9943H73.4525C75.0782 62.9943 76.4022 61.6703 76.4022 60.0446C76.4022 59.2569 76.1006 58.5195 75.5307 57.9496C74.9776 57.3966 74.2235 57.0781 73.4357 57.0781H50.3743C48.7486 57.0781 47.4246 58.4021 47.4246 60.0278C47.4246 61.6703 48.7486 62.9943 50.3743 62.9943Z" fill="#02AC8F"/>
</g>
<circle cx="50" cy="50" r="50" fill="#02AC8F" fill-opacity="0.2"/>
<defs>
<clipPath id="clip0_1_6084">
<rect width="86.3128" height="60" fill="white" transform="translate(43 46)"/>
</clipPath>
</defs>
</svg>
