<svg width="125" height="112" viewBox="0 0 125 112" fill="none" xmlns="http://www.w3.org/2000/svg">
<g clip-path="url(#clip0_1_6098)">
<path d="M122.663 54.7405L92.1425 42.193C91.495 41.9305 90.795 41.9305 90.1475 42.193L59.6275 54.7405C58.6475 55.143 58 56.1055 58 57.173V96.828C58 97.8955 58.6475 98.858 59.6275 99.2605L90.1475 111.79C90.4625 111.93 90.8125 111.983 91.145 111.983C91.39 111.983 91.635 111.948 91.8625 111.878L91.88 111.93L92.1775 111.773C92.23 111.755 92.2825 111.738 92.3525 111.703L122.663 99.2605C123.66 98.858 124.29 97.8955 124.29 96.828V57.173C124.29 56.1055 123.66 55.143 122.663 54.7405ZM114.963 57.2605L91.1625 67.043L81.135 62.913L104.2 52.8505L114.963 57.2605ZM67.345 57.2605L91.145 47.478L97.4275 50.0505L74.3275 60.1305L67.345 57.2605ZM74.66 78.4355C76.1125 78.4355 77.285 77.263 77.285 75.8105V67.043L88.52 71.663V105.455L63.2675 95.0605V61.2855L72.0175 64.8905V75.8105C72.0175 77.2455 73.2075 78.4355 74.66 78.4355ZM119.023 61.2855V95.078L93.77 105.455V71.6455L119.023 61.2855Z" fill="#02AC8F"/>
</g>
<circle cx="50" cy="50" r="50" fill="#02AC8F" fill-opacity="0.2"/>
<defs>
<clipPath id="clip0_1_6098">
<rect width="66.29" height="70" fill="white" transform="translate(58 42)"/>
</clipPath>
</defs>
</svg>
