<svg width="119" height="106" viewBox="0 0 119 106" fill="none" xmlns="http://www.w3.org/2000/svg">
<g clip-path="url(#clip0_1_6106)">
<path d="M115.525 46H60.505C59.125 46 58 47.125 58 48.505C58 57.58 60.685 65.515 66.445 73.495C69.985 78.385 76.21 82 79.675 83.74V97.78C79.675 98.725 80.23 99.61 81.085 100.03L92.74 105.745C93.085 105.91 93.46 106 93.835 106C94.3 106 94.765 105.865 95.155 105.625C95.89 105.16 96.34 104.365 96.34 103.495V93.895C96.34 92.515 95.215 91.39 93.835 91.39C92.455 91.39 91.33 92.515 91.33 93.895V99.49L84.685 96.235V82.18C84.685 81.205 84.115 80.305 83.23 79.9C78.895 77.905 73.285 74.41 70.51 70.57C65.905 64.195 63.55 57.97 63.1 51.01H112.945C112.495 57.97 110.125 64.18 105.535 70.555C102.595 74.62 97.075 78.19 92.89 79.915C91.615 80.44 91 81.91 91.54 83.185C91.795 83.8 92.275 84.28 92.89 84.535C93.505 84.79 94.195 84.79 94.81 84.535C99.28 82.675 105.85 78.67 109.585 73.48C115.345 65.5 118.03 57.565 118.03 48.49C118.03 47.125 116.905 46 115.525 46Z" fill="#02AC8F"/>
</g>
<circle cx="50" cy="50" r="50" fill="#02AC8F" fill-opacity="0.2"/>
<defs>
<clipPath id="clip0_1_6106">
<rect width="60.03" height="60" fill="white" transform="translate(58 46)"/>
</clipPath>
</defs>
</svg>
