<svg width="112" height="106" viewBox="0 0 112 106" fill="none" xmlns="http://www.w3.org/2000/svg">
<g clip-path="url(#clip0_1_6072)">
<path d="M109.001 54.999H102.996H66.9993H60.9951C59.3499 54.999 58 56.3489 58 57.9941C58 59.6533 59.3499 60.9892 60.9951 60.9892H63.9902V96.9864C63.9902 101.95 68.0258 105.986 72.9895 105.986H96.9923C101.956 105.986 105.992 101.95 105.992 96.9864V60.9892H108.987C110.646 60.9892 111.982 59.6393 111.982 57.9941C111.996 56.3489 110.646 54.999 109.001 54.999ZM100.001 97.0004C100.001 98.6597 98.6515 99.9955 97.0063 99.9955H73.0035C71.3443 99.9955 70.0084 98.6456 70.0084 97.0004V61.0032H100.001V97.0004Z" fill="#02AC8F"/>
<path d="M78.9936 52.0042H90.988C92.6472 52.0042 93.9831 50.6543 93.9831 49.0091C93.9831 47.364 92.6472 46 91.0021 46H79.0077C77.3484 46 75.9985 47.3499 75.9985 48.9951C75.9985 50.6403 77.3484 52.0042 78.9936 52.0042Z" fill="#02AC8F"/>
<path d="M78.9936 90.9966C80.6529 90.9966 81.9887 89.6467 81.9887 88.0015V70.0029C81.9887 68.3436 80.6388 67.0078 78.9936 67.0078C77.3344 67.0078 75.9985 68.3577 75.9985 70.0029V88.0015C75.9985 89.6467 77.3484 90.9966 78.9936 90.9966Z" fill="#02AC8F"/>
<path d="M91.002 90.9966C92.6613 90.9966 93.9971 89.6467 93.9971 88.0015V70.0029C93.9971 68.3436 92.6472 67.0078 91.002 67.0078C89.3428 67.0078 88.0069 68.3577 88.0069 70.0029V88.0015C87.9929 89.6467 89.3428 90.9966 91.002 90.9966Z" fill="#02AC8F"/>
</g>
<circle cx="50" cy="50" r="50" fill="#02AC8F" fill-opacity="0.2"/>
<defs>
<clipPath id="clip0_1_6072">
<rect width="53.9958" height="60" fill="white" transform="translate(58 46)"/>
</clipPath>
</defs>
</svg>
