<svg width="128" height="112" viewBox="0 0 128 112" fill="none" xmlns="http://www.w3.org/2000/svg">
<g clip-path="url(#clip0_1_6114)">
<path d="M62.1825 70.105C62.8125 70.3675 63.5475 70.3675 64.195 70.0875L70.215 67.55C71.545 66.99 72.175 65.45 71.615 64.12C71.055 62.79 69.515 62.16 68.185 62.72H68.1675C72.945 53.2875 82.745 47.25 93.385 47.25C106.282 47.25 117.535 55.965 120.772 68.4425C121.07 69.5975 122.12 70.4025 123.31 70.4025C123.537 70.4025 123.747 70.3675 123.975 70.315C125.375 69.9475 126.215 68.5125 125.865 67.1125C122.015 52.3425 108.662 42 93.385 42C86.9275 42 80.645 43.855 75.22 47.3375C70.0225 50.6975 65.875 55.3875 63.18 60.97L63.04 60.62C62.76 59.9725 62.2525 59.4825 61.605 59.2025C60.9575 58.94 60.24 58.94 59.5925 59.22C58.945 59.5 58.455 60.0075 58.175 60.655C57.9125 61.3025 57.9125 62.02 58.1925 62.6675L60.73 68.6875C61.0275 69.335 61.535 69.8425 62.1825 70.105Z" fill="#02AC8F"/>
<path d="M127.79 90.9301L125.252 84.9101C124.99 84.2801 124.465 83.7551 123.817 83.4926C123.17 83.2301 122.452 83.2301 121.805 83.5101L115.785 86.0476C115.137 86.3276 114.647 86.8351 114.367 87.4826C114.105 88.1301 114.105 88.8476 114.385 89.4951C114.665 90.1426 115.172 90.6326 115.82 90.9126C116.467 91.1751 117.185 91.1751 117.832 90.8951L118.095 90.7726C113.405 100.503 103.5 106.75 92.615 106.75C79.7175 106.75 68.465 98.0351 65.2275 85.5576C64.86 84.1576 63.425 83.3176 62.025 83.6851C61.3425 83.8601 60.7825 84.2976 60.415 84.8926C60.0475 85.4876 59.96 86.2051 60.135 86.8876C64.0025 101.658 77.3375 112 92.615 112C99.23 112 105.652 110.058 111.165 106.4C116.257 103.023 120.3 98.3326 122.907 92.8376L122.96 92.9601C123.362 93.9401 124.325 94.5701 125.375 94.5701C125.725 94.5701 126.075 94.5001 126.39 94.3601C127.037 94.0801 127.527 93.5726 127.807 92.9251C128.07 92.2776 128.07 91.5601 127.79 90.9301Z" fill="#02AC8F"/>
<path d="M108.4 81.9179C111.917 77.1754 113.16 71.1379 111.655 66.1679C111.41 65.3979 110.85 64.7854 110.097 64.4879C107.052 63.3154 103.29 63.1229 99.5099 63.9804C96.9199 64.5579 94.4699 65.5904 92.5799 66.9029C89.1499 63.9629 85.2124 62.2129 81.9749 62.2129C81.9399 62.2129 81.9224 62.2129 81.8874 62.2129C80.9599 62.2129 80.1024 62.7204 79.6299 63.5254C79.1749 64.3304 79.1749 65.3279 79.6299 66.1329C80.8724 68.2854 80.3299 70.2629 79.3149 73.3079C78.5624 75.5829 77.7924 77.9279 78.1074 80.5879C78.5449 84.5254 81.2924 88.1479 85.0899 89.8279C86.5074 90.4579 87.9774 90.7729 89.4474 90.7729C89.5874 90.7729 89.7274 90.7729 89.8674 90.7554L91.4424 96.0579C91.7749 97.1604 92.8074 97.9304 93.9624 97.9304C94.2074 97.9304 94.4699 97.8954 94.7149 97.8254C95.3799 97.6329 95.9399 97.1779 96.2724 96.5654C96.6049 95.9529 96.6749 95.2354 96.4824 94.5704L94.9949 89.5829C97.4799 89.3204 99.8249 88.6204 101.977 87.4829C104.48 86.1354 106.65 84.2629 108.4 81.9179ZM99.1774 76.3004C98.5649 74.4629 97.5499 72.5554 96.2024 70.7879C98.8449 69.2304 103.237 68.1629 106.912 69.0029C107.385 72.1529 106.335 75.8804 104.182 78.8029C103.29 80.0104 101.785 81.6204 99.5624 82.8279C100.07 80.7804 99.9474 78.5929 99.1774 76.3004ZM86.8049 80.4129L88.2749 85.4004C87.8374 85.2954 87.4699 85.1554 87.2074 85.0504C85.1074 84.1229 83.5499 82.1104 83.3049 80.0279C83.1299 78.4879 83.6899 76.7729 84.3024 74.9529C84.9324 73.0104 85.6499 70.8229 85.5974 68.4779C89.3774 70.3504 93.0174 74.3404 94.2074 77.9454C94.9774 80.2904 94.6624 82.2504 93.2624 83.7379L91.8274 78.9254C91.6349 78.2604 91.1799 77.7004 90.5674 77.3679C89.9549 77.0354 89.2374 76.9654 88.5724 77.1579C87.1724 77.5604 86.3849 79.0129 86.8049 80.4129Z" fill="#02AC8F"/>
</g>
<circle cx="50" cy="50" r="50" fill="#02AC8F" fill-opacity="0.2"/>
<defs>
<clipPath id="clip0_1_6114">
<rect width="70" height="70" fill="white" transform="translate(58 42)"/>
</clipPath>
</defs>
</svg>
