<svg width="19" height="18" viewBox="0 0 19 18" fill="none" xmlns="http://www.w3.org/2000/svg">
<g clip-path="url(#clip0_1_6333)">
<path d="M9.78891 15.5388C9.7874 15.5388 9.78575 15.5388 9.78411 15.5388C9.24097 15.5351 4.43939 15.4913 3.079 15.1234C2.12827 14.8678 1.37777 14.1181 1.12151 13.1673C0.765552 11.8309 0.788212 9.25805 0.790684 9.05261C0.788349 8.84812 0.765415 6.25397 1.12041 4.90664C1.12082 4.9054 1.1211 4.90403 1.12151 4.90279C1.37488 3.96277 2.14228 3.18988 3.07667 2.93362C3.079 2.93294 3.08147 2.93239 3.08381 2.9317C4.42881 2.57822 9.23987 2.53496 9.78411 2.53125H9.79386C10.3384 2.53496 15.1527 2.57877 16.5006 2.94722C17.4496 3.20238 18.2001 3.95192 18.4563 4.90279C18.8252 6.24848 18.7907 8.84977 18.7871 9.06812C18.7877 9.11646 18.7895 9.31381 18.7863 9.60508C18.7821 9.99084 18.4681 10.3007 18.0833 10.3007C18.0807 10.3007 18.0782 10.3007 18.0756 10.3005C17.6873 10.2964 17.3759 9.97821 17.3801 9.58998C17.3835 9.27851 17.3809 9.0776 17.3809 9.07554C17.3808 9.06826 17.3809 9.06085 17.3809 9.05343C17.3938 8.33465 17.3685 6.2537 17.0994 5.27166C16.9722 4.8002 16.6021 4.43065 16.1326 4.30445C15.1387 4.03267 11.2215 3.94753 9.78891 3.9375C8.35671 3.94753 4.44406 4.03047 3.44471 4.29085C2.98424 4.41857 2.60577 4.8013 2.47956 5.26726C2.167 6.45653 2.19652 9.01772 2.1968 9.04341V9.06194C2.18746 9.77221 2.22028 11.8291 2.4797 12.8033C2.60549 13.2699 2.97559 13.6394 3.44498 13.7657C4.44872 14.0372 8.35945 14.1225 9.78878 14.1326C11.2218 14.1225 15.1383 14.0396 16.1346 13.7788C16.6031 13.652 16.9723 13.2829 17.0985 12.8149C17.1996 12.44 17.5855 12.2179 17.9604 12.3191C18.3353 12.4202 18.5574 12.806 18.4563 13.181C18.1999 14.1317 17.4496 14.8814 16.4977 15.1374C16.4965 15.1377 16.4951 15.1381 16.4939 15.1384C15.149 15.4918 10.3378 15.5351 9.79372 15.5388C9.79221 15.5388 9.79056 15.5388 9.78891 15.5388ZM8.99295 11.6532L12.5845 9.57995C12.7911 9.46061 12.9185 9.23937 12.9185 8.99987C12.9185 8.76037 12.7911 8.53913 12.5845 8.41979L8.99295 6.34653C8.7871 6.22774 8.53386 6.22815 8.32855 6.34777C8.12311 6.46725 7.99663 6.6878 7.99663 6.92647V11.0731C7.99663 11.3118 8.12311 11.5324 8.32855 11.652C8.43155 11.712 8.54663 11.7421 8.66171 11.7421C8.77611 11.7421 8.89037 11.7124 8.99295 11.6532Z" fill="white"/>
</g>
<defs>
<clipPath id="clip0_1_6333">
<rect width="18" height="18" fill="white" transform="translate(0.789551)"/>
</clipPath>
</defs>
</svg>
